<svg width="22" height="22" viewBox="0 0 22 22" fill="none" xmlns="http://www.w3.org/2000/svg">
<path d="M11 22C7.94444 22 5.34722 20.9306 3.20833 18.7917C1.06944 16.6528 0 14.0556 0 11C0 7.94444 1.06944 5.34722 3.20833 3.20833C5.34722 1.06944 7.94444 0 11 0C11.2852 0 11.5655 0.0101853 11.8409 0.0305557C12.1163 0.050926 12.386 0.0814814 12.65 0.122222C11.8148 0.712963 11.1475 1.48215 10.648 2.42978C10.1485 3.37741 9.89919 4.40081 9.9 5.5C9.9 7.33333 10.5417 8.89167 11.825 10.175C13.1083 11.4583 14.6667 12.1 16.5 12.1C17.6204 12.1 18.6491 11.8503 19.5861 11.3508C20.5231 10.8513 21.287 10.1844 21.8778 9.35C21.9185 9.61481 21.9491 9.88452 21.9694 10.1591C21.9898 10.4337 22 10.714 22 11C22 14.0556 20.9306 16.6528 18.7917 18.7917C16.6528 20.9306 14.0556 22 11 22Z" fill="#D4D4D4"/>
</svg>
