<svg width="21" height="21" viewBox="0 0 21 21" fill="none" xmlns="http://www.w3.org/2000/svg">
<path d="M19.7133 19.5L13.7133 13.5M1.71332 8.5C1.71332 9.41925 1.89438 10.3295 2.24616 11.1788C2.59794 12.0281 3.11356 12.7997 3.76357 13.4497C4.41358 14.0998 5.18525 14.6154 6.03453 14.9672C6.88381 15.3189 7.79406 15.5 8.71332 15.5C9.63257 15.5 10.5428 15.3189 11.3921 14.9672C12.2414 14.6154 13.0131 14.0998 13.6631 13.4497C14.3131 12.7997 14.8287 12.0281 15.1805 11.1788C15.5323 10.3295 15.7133 9.41925 15.7133 8.5C15.7133 7.58075 15.5323 6.6705 15.1805 5.82122C14.8287 4.97194 14.3131 4.20026 13.6631 3.55025C13.0131 2.90024 12.2414 2.38463 11.3921 2.03284C10.5428 1.68106 9.63257 1.5 8.71332 1.5C7.79406 1.5 6.88381 1.68106 6.03453 2.03284C5.18525 2.38463 4.41358 2.90024 3.76357 3.55025C3.11356 4.20026 2.59794 4.97194 2.24616 5.82122C1.89438 6.6705 1.71332 7.58075 1.71332 8.5Z" stroke="#585B5F" stroke-width="2" stroke-linecap="round" stroke-linejoin="round"/>
</svg>
