<svg width="23" height="23" viewBox="0 0 23 23" fill="none" xmlns="http://www.w3.org/2000/svg">
<path d="M11.7133 16.5C10.33 16.5 9.15098 16.0123 8.17632 15.037C7.20165 14.0617 6.71398 12.8827 6.71332 11.5C6.71265 10.1173 7.20032 8.93833 8.17632 7.963C9.15232 6.98767 10.3313 6.5 11.7133 6.5C13.0953 6.5 14.2747 6.98767 15.2513 7.963C16.228 8.93833 16.7153 10.1173 16.7133 11.5C16.7113 12.8827 16.2237 14.062 15.2503 15.038C14.277 16.014 13.098 16.5013 11.7133 16.5ZM4.71332 11.5C4.71332 12.0523 4.2656 12.5 3.71332 12.5H1.71332C1.16103 12.5 0.713318 12.0523 0.713318 11.5V11.5C0.713318 10.9477 1.16103 10.5 1.71332 10.5H3.71332C4.2656 10.5 4.71332 10.9477 4.71332 11.5V11.5ZM22.7133 11.5C22.7133 12.0523 22.2656 12.5 21.7133 12.5H19.7133C19.161 12.5 18.7133 12.0523 18.7133 11.5V11.5C18.7133 10.9477 19.161 10.5 19.7133 10.5H21.7133C22.2656 10.5 22.7133 10.9477 22.7133 11.5V11.5ZM11.7133 4.5C11.161 4.5 10.7133 4.05228 10.7133 3.5V1.5C10.7133 0.947715 11.161 0.5 11.7133 0.5V0.5C12.2656 0.5 12.7133 0.947715 12.7133 1.5V3.5C12.7133 4.05228 12.2656 4.5 11.7133 4.5V4.5ZM11.7133 22.5C11.161 22.5 10.7133 22.0523 10.7133 21.5V19.5C10.7133 18.9477 11.161 18.5 11.7133 18.5V18.5C12.2656 18.5 12.7133 18.9477 12.7133 19.5V21.5C12.7133 22.0523 12.2656 22.5 11.7133 22.5V22.5ZM6.78745 6.52401C6.41698 6.92297 5.79145 6.94088 5.39877 6.56375L4.3117 5.51973C3.91253 5.13638 3.90392 4.49832 4.28846 4.10029V4.10029C4.68245 3.69248 5.33973 3.69001 5.73242 4.09907L6.77634 5.18648C7.1339 5.55893 7.13877 6.14567 6.78745 6.52401V6.52401ZM19.1381 18.8998C18.7442 19.3075 18.0869 19.3102 17.6942 18.9012L16.6374 17.8009C16.2749 17.4234 16.2754 16.827 16.6385 16.4502V16.4502C17.0114 16.0633 17.6271 16.0514 18.0147 16.4236L19.1149 17.4803C19.5141 17.8636 19.5226 18.5018 19.1381 18.8998V18.8998ZM16.6893 6.57413C16.2903 6.20367 16.2724 5.57813 16.6496 5.18546L17.6936 4.09838C18.0769 3.69922 18.715 3.6906 19.113 4.07514V4.07514C19.5208 4.46913 19.5233 5.12641 19.1142 5.51911L18.0268 6.56302C17.6544 6.92058 17.0676 6.92545 16.6893 6.57413V6.57413ZM4.31353 18.9248C3.90578 18.5309 3.90316 17.8736 4.31208 17.4809L5.41246 16.4241C5.78988 16.0616 6.38627 16.0621 6.76309 16.4252V16.4252C7.15 16.7981 7.16192 17.4138 6.78973 17.8014L5.73305 18.9016C5.34969 19.3008 4.71156 19.3093 4.31353 18.9248V18.9248Z" fill="#1E1E1E"/>
</svg>
