<svg width="24" height="24" viewBox="0 0 24 24" fill="none" xmlns="http://www.w3.org/2000/svg">
<g clip-path="url(#clip0_1_269)">
<path fill-rule="evenodd" clip-rule="evenodd" d="M15.282 2.19361L16.32 0.304811C16.3393 0.257822 16.3406 0.205366 16.3236 0.157482C16.3067 0.109599 16.2726 0.0696505 16.2281 0.045284C16.1835 0.0209175 16.1315 0.013844 16.082 0.0254174C16.0326 0.0369909 15.9891 0.0663982 15.96 0.108011L14.9112 2.01601C13.9932 1.61164 13.0007 1.40398 11.9976 1.40641C10.9548 1.40641 9.96959 1.62361 9.08879 2.01361L8.03759 0.108011C8.02476 0.0842773 8.00738 0.0633053 7.98644 0.0462954C7.9655 0.0292854 7.94142 0.0165714 7.91556 0.00888082C7.8897 0.00119022 7.86258 -0.00132599 7.83575 0.00147616C7.80891 0.00427831 7.7829 0.0123438 7.75919 0.0252112C7.73522 0.0377953 7.71402 0.0550501 7.69682 0.0759584C7.67963 0.0968667 7.6668 0.121005 7.65908 0.146951C7.65137 0.172897 7.64892 0.200126 7.65189 0.227031C7.65487 0.253937 7.66319 0.279975 7.67639 0.303611L8.71559 2.19001C6.67559 3.23881 5.29559 5.23441 5.29679 7.52641L18.696 7.52521C18.696 5.23321 17.3208 3.24241 15.282 2.19361ZM8.94839 5.10841C8.87479 5.10833 8.80194 5.09376 8.73398 5.06552C8.66602 5.03729 8.60428 4.99594 8.5523 4.94385C8.50032 4.89176 8.45911 4.82993 8.43102 4.76191C8.40293 4.69389 8.38851 4.621 8.38859 4.54741C8.38867 4.47382 8.40324 4.40096 8.43147 4.333C8.45971 4.26504 8.50106 4.20331 8.55315 4.15132C8.60524 4.09934 8.66706 4.05813 8.73509 4.03004C8.80311 4.00195 8.87599 3.98753 8.94959 3.98761C9.09837 3.98761 9.24107 4.04672 9.34627 4.15192C9.45148 4.25713 9.51059 4.39982 9.51059 4.54861C9.51059 4.6974 9.45148 4.84009 9.34627 4.9453C9.24107 5.05051 9.09837 5.10961 8.94959 5.10961M18.6504 8.04001L18.6528 17.6544C18.6528 18.2316 18.3384 18.7308 17.8752 19.0068C17.6309 19.155 17.3509 19.2338 17.0652 19.2348L15.9804 19.236V22.5168C15.9802 22.7373 15.9309 22.955 15.8361 23.154C15.7412 23.3531 15.6032 23.5285 15.4321 23.6675C15.261 23.8066 15.0611 23.9058 14.8468 23.9579C14.6326 24.01 14.4094 24.0137 14.1936 23.9688C13.859 23.9004 13.5582 23.7188 13.3418 23.4545C13.1254 23.1903 13.0067 22.8595 13.0056 22.518V19.236H10.9956V22.518C10.995 22.9115 10.8381 23.2886 10.5595 23.5665C10.281 23.8444 9.90347 24.0003 9.50999 24C9.1167 23.9997 8.73956 23.8436 8.46113 23.5658C8.1827 23.2881 8.02566 22.9113 8.02439 22.518V19.236H6.94319C6.31799 19.236 5.78279 18.876 5.52479 18.3528C5.4149 18.1367 5.35697 17.898 5.35559 17.6556L5.35319 8.04361L18.6504 8.04001ZM3.28799 7.76401C4.10879 7.76401 4.77599 8.42761 4.77599 9.24481V15.4488C4.77558 15.7172 4.70248 15.9804 4.56446 16.2106C4.42644 16.4407 4.22865 16.6292 3.99211 16.756C3.75557 16.8827 3.4891 16.9431 3.22103 16.9305C2.95295 16.918 2.69328 16.8331 2.46959 16.6848C2.26431 16.5505 2.09571 16.3672 1.97901 16.1514C1.86232 15.9356 1.80121 15.6941 1.80119 15.4488L1.79999 9.24361C1.79999 8.42761 2.46599 7.76401 3.28799 7.76401ZM20.712 7.76161C21.5328 7.76161 22.2 8.42401 22.2 9.24241V15.4452C22.2 16.2648 21.534 16.9272 20.7132 16.9272C19.8912 16.9272 19.2252 16.2648 19.2252 15.4452V9.24241C19.2252 8.42401 19.8912 7.76041 20.712 7.76161ZM15.048 3.99001C15.1237 3.98651 15.1993 3.99839 15.2703 4.02494C15.3412 4.05149 15.4061 4.09216 15.4609 4.14449C15.5157 4.19681 15.5593 4.25971 15.5891 4.32938C15.6189 4.39905 15.6343 4.47404 15.6343 4.54981C15.6343 4.62559 15.6189 4.70058 15.5891 4.77024C15.5593 4.83991 15.5157 4.90281 15.4609 4.95514C15.4061 5.00746 15.3412 5.04813 15.2703 5.07468C15.1993 5.10124 15.1237 5.11312 15.048 5.10961C14.9723 5.11312 14.8967 5.10124 14.8257 5.07468C14.7547 5.04813 14.6899 5.00746 14.6351 4.95514C14.5803 4.90281 14.5366 4.83991 14.5068 4.77024C14.477 4.70058 14.4617 4.62559 14.4617 4.54981C14.4617 4.47404 14.477 4.39905 14.5068 4.32938C14.5366 4.25971 14.5803 4.19681 14.6351 4.14449C14.6899 4.09216 14.7547 4.05149 14.8257 4.02494C14.8967 3.99839 14.9723 3.98651 15.048 3.99001Z" fill="white"/>
</g>
<defs>
<clipPath id="clip0_1_269">
<rect width="24" height="24" fill="white"/>
</clipPath>
</defs>
</svg>
