<svg width="84" height="41" viewBox="0 0 84 41" fill="none" xmlns="http://www.w3.org/2000/svg">
<g filter="url(#filter0_d_1_558)">
<path d="M3.28668 21.2581H11.1734V35.7975V35.7975C6.8177 35.7975 3.28668 32.2665 3.28668 27.9107V21.2581Z" fill="#9E00FF"/>
<path d="M11.1733 21.2581H3.28652L3.28652 0.0865841V0.0865841C7.64226 0.0865841 11.1733 3.61761 11.1733 7.97335L11.1733 21.2581Z" fill="#9E00FF"/>
<path d="M15.7106 34.3686C12.1378 36.8785 7.21563 36.0106 4.71673 32.43V32.43L10.0931 28.653C13.6659 26.143 18.5881 27.0109 21.087 30.5915V30.5915L15.7106 34.3686Z" fill="#7000B5"/>
</g>
<path d="M30.4002 25.7674V14.5477H34.8925C35.7179 14.5477 36.4064 14.67 36.9579 14.9147C37.5093 15.1594 37.9239 15.4991 38.2014 15.9337C38.479 16.3646 38.6178 16.8614 38.6178 17.4238C38.6178 17.8621 38.5302 18.2474 38.3548 18.5797C38.1795 18.9084 37.9385 19.1787 37.6317 19.3905C37.3286 19.5987 36.9816 19.7466 36.5908 19.8343V19.9439C37.0181 19.9621 37.418 20.0826 37.7906 20.3054C38.1668 20.5282 38.4717 20.8405 38.7055 21.2422C38.9392 21.6403 39.0561 22.1151 39.0561 22.6666C39.0561 23.2619 38.9082 23.7933 38.6123 24.2608C38.3201 24.7246 37.8874 25.0917 37.314 25.362C36.7405 25.6322 36.0338 25.7674 35.1938 25.7674H30.4002ZM32.7724 23.828H34.7062C35.3673 23.828 35.8494 23.702 36.1525 23.45C36.4557 23.1944 36.6072 22.8547 36.6072 22.431C36.6072 22.1206 36.5324 21.8467 36.3826 21.6093C36.2329 21.3719 36.0192 21.1856 35.7417 21.0505C35.4677 20.9154 35.1409 20.8478 34.761 20.8478H32.7724V23.828ZM32.7724 19.2426H34.5309C34.856 19.2426 35.1445 19.186 35.3965 19.0728C35.6522 18.9559 35.8531 18.7916 35.9991 18.5797C36.1489 18.3679 36.2238 18.1141 36.2238 17.8182C36.2238 17.4128 36.0795 17.086 35.791 16.8376C35.5061 16.5893 35.1007 16.4651 34.5748 16.4651H32.7724V19.2426ZM50.9099 20.1575C50.9099 21.381 50.678 22.4219 50.2142 23.2802C49.754 24.1385 49.1258 24.794 48.3296 25.2469C47.5371 25.6961 46.6459 25.9208 45.6561 25.9208C44.6591 25.9208 43.7643 25.6943 42.9717 25.2414C42.1792 24.7886 41.5528 24.133 41.0927 23.2747C40.6325 22.4164 40.4024 21.3774 40.4024 20.1575C40.4024 18.934 40.6325 17.8931 41.0927 17.0348C41.5528 16.1766 42.1792 15.5228 42.9717 15.0736C43.7643 14.6207 44.6591 14.3943 45.6561 14.3943C46.6459 14.3943 47.5371 14.6207 48.3296 15.0736C49.1258 15.5228 49.754 16.1766 50.2142 17.0348C50.678 17.8931 50.9099 18.934 50.9099 20.1575ZM48.5049 20.1575C48.5049 19.365 48.3862 18.6966 48.1488 18.1524C47.9151 17.6082 47.5845 17.1955 47.1572 16.9143C46.7299 16.6331 46.2296 16.4925 45.6561 16.4925C45.0827 16.4925 44.5824 16.6331 44.1551 16.9143C43.7278 17.1955 43.3954 17.6082 43.158 18.1524C42.9243 18.6966 42.8074 19.365 42.8074 20.1575C42.8074 20.95 42.9243 21.6184 43.158 22.1626C43.3954 22.7068 43.7278 23.1195 44.1551 23.4007C44.5824 23.6819 45.0827 23.8225 45.6561 23.8225C46.2296 23.8225 46.7299 23.6819 47.1572 23.4007C47.5845 23.1195 47.9151 22.7068 48.1488 22.1626C48.3862 21.6184 48.5049 20.95 48.5049 20.1575ZM52.6671 25.7674V14.5477H57.0936C57.9409 14.5477 58.6641 14.6992 59.2631 15.0024C59.8657 15.3018 60.324 15.7273 60.6381 16.2788C60.9559 16.8267 61.1148 17.4713 61.1148 18.2127C61.1148 18.9577 60.9541 19.5987 60.6327 20.1356C60.3113 20.6688 59.8456 21.0779 59.2357 21.3628C58.6294 21.6476 57.8953 21.7901 57.0334 21.7901H54.0696V19.8836H56.6499C57.1028 19.8836 57.4789 19.8215 57.7784 19.6973C58.0779 19.5731 58.3007 19.3869 58.4468 19.1385C58.5965 18.8902 58.6714 18.5816 58.6714 18.2127C58.6714 17.8402 58.5965 17.5261 58.4468 17.2704C58.3007 17.0147 58.0761 16.8212 57.7729 16.6897C57.4735 16.5546 57.0955 16.487 56.6389 16.487H55.0392V25.7674H52.6671ZM58.7262 20.6615L61.5147 25.7674H58.896L56.1678 20.6615H58.7262ZM69.7213 14.5477H72.0934V21.8339C72.0934 22.652 71.898 23.3678 71.5072 23.9814C71.1201 24.595 70.5777 25.0734 69.8802 25.4167C69.1826 25.7564 68.3699 25.9262 67.4423 25.9262C66.511 25.9262 65.6965 25.7564 64.9989 25.4167C64.3013 25.0734 63.759 24.595 63.3718 23.9814C62.9847 23.3678 62.7911 22.652 62.7911 21.8339V14.5477H65.1633V21.6312C65.1633 22.0585 65.2564 22.4383 65.4427 22.7707C65.6326 23.103 65.8992 23.3642 66.2425 23.5541C66.5858 23.744 66.9857 23.839 67.4423 23.839C67.9025 23.839 68.3024 23.744 68.642 23.5541C68.9853 23.3642 69.2501 23.103 69.4364 22.7707C69.6263 22.4383 69.7213 22.0585 69.7213 21.6312V14.5477ZM80.1316 17.7744C80.0877 17.3325 79.8996 16.9892 79.5673 16.7445C79.2349 16.4998 78.7839 16.3774 78.2141 16.3774C77.827 16.3774 77.5001 16.4322 77.2335 16.5418C76.9669 16.6477 76.7624 16.7956 76.6199 16.9855C76.4811 17.1754 76.4117 17.3909 76.4117 17.632C76.4044 17.8329 76.4464 18.0082 76.5377 18.1579C76.6327 18.3076 76.7624 18.4373 76.9267 18.5469C77.0911 18.6528 77.281 18.7459 77.4965 18.8263C77.7119 18.903 77.942 18.9687 78.1867 19.0235L79.1948 19.2645C79.6842 19.3741 80.1334 19.5202 80.5424 19.7028C80.9515 19.8854 81.3058 20.11 81.6052 20.3766C81.9047 20.6433 82.1366 20.9574 82.301 21.3189C82.469 21.6805 82.5548 22.095 82.5585 22.5625C82.5548 23.2491 82.3795 23.8445 82.0326 24.3485C81.6892 24.8488 81.1925 25.2378 80.5424 25.5154C79.896 25.7893 79.1162 25.9262 78.2032 25.9262C77.2974 25.9262 76.5085 25.7875 75.8365 25.5099C75.1682 25.2323 74.6459 24.8214 74.2697 24.2772C73.8972 23.7294 73.7018 23.0519 73.6835 22.2448H75.979C76.0045 22.621 76.1123 22.935 76.3022 23.187C76.4957 23.4354 76.7532 23.6235 77.0746 23.7513C77.3997 23.8755 77.7667 23.9376 78.1758 23.9376C78.5775 23.9376 78.9263 23.8792 79.2221 23.7623C79.5216 23.6454 79.7536 23.4829 79.9179 23.2747C80.0823 23.0665 80.1644 22.8273 80.1644 22.557C80.1644 22.305 80.0896 22.0932 79.9398 21.9215C79.7937 21.7499 79.5782 21.6038 79.2934 21.4833C79.0121 21.3628 78.667 21.2532 78.258 21.1546L77.0363 20.8478C76.0903 20.6177 75.3435 20.2579 74.7956 19.7685C74.2478 19.2791 73.9757 18.6199 73.9793 17.7909C73.9757 17.1115 74.1565 16.518 74.5217 16.0104C74.8906 15.5027 75.3964 15.1064 76.0392 14.8216C76.682 14.5367 77.4125 14.3943 78.2306 14.3943C79.0633 14.3943 79.7901 14.5367 80.411 14.8216C81.0355 15.1064 81.5212 15.5027 81.8682 16.0104C82.2152 16.518 82.3941 17.1061 82.4051 17.7744H80.1316Z" fill="#191919"/>
<path d="M18.1484 24.3754C17.6882 25.1164 22.9812 14.5844 22.9812 14.9286C22.9812 14.9286 28.0444 25.1164 27.5841 24.3754" stroke="#191919" stroke-width="2.3734" stroke-linecap="round"/>
<defs>
<filter id="filter0_d_1_558" x="0.913099" y="0.0865784" width="22.5473" height="40.4637" filterUnits="userSpaceOnUse" color-interpolation-filters="sRGB">
<feFlood flood-opacity="0" result="BackgroundImageFix"/>
<feColorMatrix in="SourceAlpha" type="matrix" values="0 0 0 0 0 0 0 0 0 0 0 0 0 0 0 0 0 0 127 0" result="hardAlpha"/>
<feOffset dy="2.3734"/>
<feGaussianBlur stdDeviation="1.1867"/>
<feComposite in2="hardAlpha" operator="out"/>
<feColorMatrix type="matrix" values="0 0 0 0 0 0 0 0 0 0 0 0 0 0 0 0 0 0 0.25 0"/>
<feBlend mode="normal" in2="BackgroundImageFix" result="effect1_dropShadow_1_558"/>
<feBlend mode="normal" in="SourceGraphic" in2="effect1_dropShadow_1_558" result="shape"/>
</filter>
</defs>
</svg>
