<svg width="19" height="19" viewBox="0 0 19 19" fill="none" xmlns="http://www.w3.org/2000/svg">
<path d="M17.5 10.8507H10.8334V17.5174C10.8334 17.871 10.6929 18.2101 10.4428 18.4602C10.1928 18.7102 9.85364 18.8507 9.50002 18.8507C9.1464 18.8507 8.80726 18.7102 8.55721 18.4602C8.30716 18.2101 8.16669 17.871 8.16669 17.5174V10.8507H1.50002C1.1464 10.8507 0.80726 10.7102 0.557212 10.4602C0.307163 10.2101 0.166687 9.87098 0.166687 9.51735C0.166687 9.16373 0.307163 8.82459 0.557212 8.57455C0.80726 8.3245 1.1464 8.18402 1.50002 8.18402H8.16669V1.51735C8.16669 1.16373 8.30716 0.824593 8.55721 0.574545C8.80726 0.324496 9.1464 0.184021 9.50002 0.184021C9.85364 0.184021 10.1928 0.324496 10.4428 0.574545C10.6929 0.824593 10.8334 1.16373 10.8334 1.51735V8.18402H17.5C17.8536 8.18402 18.1928 8.3245 18.4428 8.57455C18.6929 8.82459 18.8334 9.16373 18.8334 9.51735C18.8334 9.87098 18.6929 10.2101 18.4428 10.4602C18.1928 10.7102 17.8536 10.8507 17.5 10.8507Z" fill="white"/>
</svg>
